<svg xmlns="http://www.w3.org/2000/svg" xmlns:xlink="http://www.w3.org/1999/xlink" width="500" zoomAndPan="magnify" viewBox="0 0 375 374.999991" height="500" preserveAspectRatio="xMidYMid meet" version="1.0"><defs><clipPath id="b96e3ea36e"><path d="M 180 37.5 L 193 37.5 L 193 67 L 180 67 Z M 180 37.5 " clip-rule="nonzero"/></clipPath><clipPath id="f8989f56a1"><path d="M 180 336 L 193 336 L 193 365.25 L 180 365.25 Z M 180 336 " clip-rule="nonzero"/></clipPath></defs><path fill="#000000" d="M 290.484375 169.902344 L 265.703125 169.902344 C 259.640625 169.902344 254.710938 164.980469 254.710938 158.921875 L 254.710938 150.84375 C 254.710938 144.785156 259.640625 139.863281 265.703125 139.863281 L 290.484375 139.863281 C 296.546875 139.863281 301.476562 144.785156 301.476562 150.84375 L 301.476562 158.921875 C 301.492188 164.980469 296.546875 169.902344 290.484375 169.902344 Z M 266.808594 157.835938 L 289.414062 157.835938 L 289.414062 151.929688 L 266.808594 151.929688 Z M 266.808594 157.835938 " fill-opacity="1" fill-rule="nonzero"/><path fill="#000000" d="M 300.875 122.359375 L 242.429688 122.359375 L 234.925781 96.976562 C 232.972656 90.402344 226.289062 85.792969 218.652344 85.792969 L 156.363281 85.792969 C 148.730469 85.792969 142.027344 90.382812 140.089844 96.976562 L 132.589844 122.339844 L 117.050781 122.339844 L 117.050781 112.960938 C 117.050781 107.421875 112.539062 102.933594 107.007812 102.933594 L 82.628906 102.933594 C 77.082031 102.933594 72.589844 107.4375 72.589844 112.960938 L 72.589844 122.492188 C 59.054688 123.34375 48.277344 134.472656 48.277344 148.191406 L 48.277344 291.054688 C 48.277344 305.308594 59.875 316.886719 74.144531 316.886719 L 300.875 316.886719 C 315.144531 316.886719 326.738281 305.308594 326.738281 291.054688 L 326.738281 148.191406 C 326.742188 133.9375 315.144531 122.359375 300.875 122.359375 Z M 151.6875 100.398438 C 152.054688 99.144531 153.910156 97.859375 156.382812 97.859375 L 218.652344 97.859375 C 221.125 97.859375 222.980469 99.144531 223.347656 100.378906 L 229.832031 122.339844 L 145.203125 122.339844 Z M 84.652344 115.015625 L 104.96875 115.015625 L 104.96875 122.359375 L 84.652344 122.359375 Z M 74.144531 134.421875 L 300.875 134.421875 C 308.476562 134.421875 314.660156 140.597656 314.660156 148.191406 L 314.660156 175.089844 L 245.4375 175.089844 C 232.171875 156.902344 210.734375 145.019531 186.523438 145.019531 C 162.3125 145.019531 140.894531 156.902344 127.609375 175.089844 L 60.359375 175.089844 L 60.359375 148.191406 C 60.359375 140.597656 66.539062 134.421875 74.144531 134.421875 Z M 186.539062 157.085938 C 220.089844 157.085938 247.390625 184.351562 247.390625 217.863281 C 247.390625 251.371094 220.089844 278.640625 186.539062 278.640625 C 152.988281 278.640625 125.6875 251.371094 125.6875 217.863281 C 125.6875 184.351562 152.988281 157.085938 186.539062 157.085938 Z M 300.875 304.824219 L 74.144531 304.824219 C 66.539062 304.824219 60.359375 298.648438 60.359375 291.054688 L 60.359375 187.15625 L 120.492188 187.15625 C 116.113281 196.503906 113.609375 206.882812 113.609375 217.863281 C 113.609375 258.03125 146.324219 290.707031 186.539062 290.707031 C 226.757812 290.707031 259.472656 258.03125 259.472656 217.863281 C 259.472656 206.882812 256.964844 196.503906 252.589844 187.15625 L 314.660156 187.15625 L 314.660156 291.054688 C 314.660156 298.648438 308.476562 304.824219 300.875 304.824219 Z M 300.875 304.824219 " fill-opacity="1" fill-rule="nonzero"/><path fill="#000000" d="M 204.300781 103.183594 L 170.71875 103.183594 C 167.375 103.183594 164.667969 105.886719 164.667969 109.222656 C 164.667969 112.5625 167.375 115.265625 170.71875 115.265625 L 204.316406 115.265625 C 207.660156 115.265625 210.367188 112.5625 210.367188 109.222656 C 210.367188 105.886719 207.644531 103.183594 204.300781 103.183594 Z M 204.300781 103.183594 " fill-opacity="1" fill-rule="nonzero"/><path fill="#000000" d="M 186.539062 273.382812 C 155.878906 273.382812 130.953125 248.46875 130.953125 217.863281 C 130.953125 187.242188 155.898438 162.34375 186.539062 162.34375 C 217.199219 162.34375 242.128906 187.257812 242.128906 217.863281 C 242.128906 248.46875 217.183594 273.382812 186.539062 273.382812 Z M 186.539062 174.40625 C 162.546875 174.40625 143.03125 193.898438 143.03125 217.863281 C 143.03125 241.828125 162.546875 261.316406 186.539062 261.316406 C 210.535156 261.316406 230.046875 241.828125 230.046875 217.863281 C 230.046875 193.898438 210.535156 174.40625 186.539062 174.40625 Z M 186.539062 174.40625 " fill-opacity="1" fill-rule="nonzero"/><path fill="#000000" d="M 151.851562 223.886719 C 148.511719 223.886719 145.804688 221.183594 145.804688 217.847656 C 145.804688 195.417969 164.066406 177.175781 186.523438 177.175781 C 189.863281 177.175781 192.570312 179.882812 192.570312 183.21875 C 192.570312 186.554688 189.863281 189.257812 186.523438 189.257812 C 170.734375 189.257812 157.886719 202.09375 157.886719 217.863281 C 157.886719 221.183594 155.195312 223.886719 151.851562 223.886719 Z M 151.851562 223.886719 " fill-opacity="1" fill-rule="nonzero"/><path fill="#000000" d="M 84.015625 295.910156 C 74.726562 295.910156 67.175781 288.367188 67.175781 279.089844 C 67.175781 269.8125 74.726562 262.269531 84.015625 262.269531 C 93.308594 262.269531 100.859375 269.8125 100.859375 279.089844 C 100.859375 288.367188 93.308594 295.910156 84.015625 295.910156 Z M 84.015625 274.335938 C 81.394531 274.335938 79.253906 276.46875 79.253906 279.089844 C 79.253906 281.710938 81.394531 283.847656 84.015625 283.847656 C 86.640625 283.847656 88.777344 281.710938 88.777344 279.089844 C 88.777344 276.46875 86.640625 274.335938 84.015625 274.335938 Z M 84.015625 274.335938 " fill-opacity="1" fill-rule="nonzero"/><g clip-path="url(#b96e3ea36e)"><path fill="#000000" d="M 186.839844 66.335938 C 183.5 66.335938 180.792969 63.632812 180.792969 60.296875 L 180.792969 43.539062 C 180.792969 40.203125 183.5 37.5 186.839844 37.5 C 190.183594 37.5 192.890625 40.203125 192.890625 43.539062 L 192.890625 60.3125 C 192.871094 63.632812 190.164062 66.335938 186.839844 66.335938 Z M 186.839844 66.335938 " fill-opacity="1" fill-rule="nonzero"/></g><path fill="#000000" d="M 157.199219 75.53125 C 155.644531 75.53125 154.109375 74.949219 152.921875 73.761719 L 141.058594 61.914062 C 138.703125 59.5625 138.703125 55.738281 141.058594 53.386719 C 143.414062 51.035156 147.242188 51.035156 149.597656 53.386719 L 161.460938 65.234375 C 163.816406 67.589844 163.816406 71.410156 161.460938 73.761719 C 160.292969 74.949219 158.738281 75.53125 157.199219 75.53125 Z M 157.199219 75.53125 " fill-opacity="1" fill-rule="nonzero"/><path fill="#000000" d="M 217.816406 75.53125 C 216.265625 75.53125 214.726562 74.949219 213.539062 73.761719 C 211.183594 71.410156 211.183594 67.589844 213.539062 65.234375 L 225.402344 53.386719 C 227.757812 51.035156 231.585938 51.035156 233.941406 53.386719 C 236.296875 55.738281 236.296875 59.5625 233.941406 61.914062 L 222.078125 73.761719 C 220.910156 74.949219 219.371094 75.53125 217.816406 75.53125 Z M 217.816406 75.53125 " fill-opacity="1" fill-rule="nonzero"/><g clip-path="url(#f8989f56a1)"><path fill="#000000" d="M 186.839844 365.183594 C 183.5 365.183594 180.792969 362.480469 180.792969 359.140625 L 180.792969 342.386719 C 180.792969 339.050781 183.5 336.347656 186.839844 336.347656 C 190.183594 336.347656 192.890625 339.050781 192.890625 342.386719 L 192.890625 359.160156 C 192.871094 362.496094 190.164062 365.183594 186.839844 365.183594 Z M 186.839844 365.183594 " fill-opacity="1" fill-rule="nonzero"/></g><path fill="#000000" d="M 145.320312 351.082031 C 143.765625 351.082031 142.230469 350.496094 141.042969 349.3125 C 138.6875 346.960938 138.6875 343.136719 141.042969 340.785156 L 152.90625 328.9375 C 155.261719 326.585938 159.089844 326.585938 161.445312 328.9375 C 163.800781 331.289062 163.800781 335.113281 161.445312 337.464844 L 149.582031 349.3125 C 148.410156 350.480469 146.875 351.082031 145.320312 351.082031 Z M 145.320312 351.082031 " fill-opacity="1" fill-rule="nonzero"/><path fill="#000000" d="M 229.699219 351.082031 C 228.144531 351.082031 226.605469 350.496094 225.421875 349.3125 L 213.558594 337.464844 C 211.203125 335.113281 211.203125 331.289062 213.558594 328.9375 C 215.914062 326.585938 219.738281 326.585938 222.09375 328.9375 L 233.957031 340.785156 C 236.3125 343.136719 236.3125 346.960938 233.957031 349.3125 C 232.789062 350.480469 231.234375 351.082031 229.699219 351.082031 Z M 229.699219 351.082031 " fill-opacity="1" fill-rule="nonzero"/></svg>