<svg xmlns="http://www.w3.org/2000/svg" xmlns:xlink="http://www.w3.org/1999/xlink" width="500" zoomAndPan="magnify" viewBox="0 0 375 374.999991" height="500" preserveAspectRatio="xMidYMid meet" version="1.0"><defs><clipPath id="39bfbc17b8"><path d="M 56.25 73.476562 L 318.75 73.476562 L 318.75 301.476562 L 56.25 301.476562 Z M 56.25 73.476562 " clip-rule="nonzero"/></clipPath></defs><g clip-path="url(#39bfbc17b8)"><path fill="#000000" d="M 62.074219 73.476562 C 58.921875 73.476562 56.375 76.023438 56.375 79.175781 L 56.375 238.777344 C 56.375 241.929688 58.921875 244.476562 62.074219 244.476562 L 255.914062 244.476562 C 259.066406 244.476562 261.613281 241.929688 261.613281 238.777344 L 261.613281 79.175781 C 261.613281 76.023438 259.066406 73.476562 255.914062 73.476562 Z M 67.777344 84.875 L 250.210938 84.875 L 250.210938 179.417969 L 220.035156 149.246094 C 217.886719 147.097656 214.484375 147.074219 212.242188 149.066406 L 169.796875 191.507812 C 168.683594 192.617188 167.21875 193.175781 165.765625 193.175781 C 164.308594 193.175781 162.84375 192.617188 161.734375 191.507812 C 159.503906 189.277344 159.503906 185.675781 161.734375 183.445312 L 180.015625 165.175781 L 128.996094 109.523438 C 126.863281 107.210938 123.269531 107.042969 120.957031 109.15625 L 67.777344 157.484375 Z M 216.003906 101.976562 C 215.257812 101.976562 214.515625 102.050781 213.78125 102.195312 C 213.046875 102.339844 212.335938 102.558594 211.640625 102.84375 C 210.949219 103.128906 210.292969 103.480469 209.671875 103.898438 C 209.046875 104.3125 208.472656 104.785156 207.941406 105.316406 C 207.414062 105.84375 206.941406 106.421875 206.523438 107.042969 C 206.109375 107.664062 205.757812 108.324219 205.472656 109.015625 C 205.183594 109.707031 204.96875 110.417969 204.824219 111.152344 C 204.675781 111.886719 204.601562 112.628906 204.601562 113.375 C 204.601562 114.125 204.675781 114.867188 204.824219 115.601562 C 204.96875 116.335938 205.183594 117.046875 205.472656 117.738281 C 205.757812 118.429688 206.109375 119.085938 206.523438 119.710938 C 206.941406 120.332031 207.414062 120.910156 207.941406 121.4375 C 208.472656 121.96875 209.046875 122.4375 209.671875 122.855469 C 210.292969 123.269531 210.949219 123.621094 211.640625 123.910156 C 212.335938 124.195312 213.046875 124.410156 213.78125 124.558594 C 214.515625 124.703125 215.257812 124.777344 216.003906 124.777344 C 216.753906 124.777344 217.496094 124.703125 218.230469 124.558594 C 218.964844 124.410156 219.675781 124.195312 220.371094 123.910156 C 221.0625 123.621094 221.71875 123.269531 222.339844 122.855469 C 222.964844 122.4375 223.539062 121.96875 224.070312 121.4375 C 224.597656 120.910156 225.070312 120.332031 225.488281 119.710938 C 225.902344 119.085938 226.253906 118.429688 226.539062 117.738281 C 226.828125 117.046875 227.042969 116.335938 227.1875 115.601562 C 227.335938 114.867188 227.40625 114.125 227.40625 113.375 C 227.40625 112.628906 227.335938 111.886719 227.1875 111.152344 C 227.042969 110.417969 226.828125 109.707031 226.539062 109.015625 C 226.253906 108.324219 225.902344 107.664062 225.488281 107.042969 C 225.070312 106.421875 224.597656 105.84375 224.070312 105.316406 C 223.539062 104.785156 222.964844 104.3125 222.339844 103.898438 C 221.71875 103.480469 221.0625 103.128906 220.371094 102.84375 C 219.675781 102.558594 218.964844 102.339844 218.230469 102.195312 C 217.496094 102.050781 216.753906 101.976562 216.003906 101.976562 Z M 273.015625 101.976562 L 273.015625 113.375 L 278.71875 113.375 L 278.71875 261.578125 L 96.28125 261.578125 L 96.28125 255.875 L 84.878906 255.875 L 84.878906 267.277344 C 84.878906 267.652344 84.914062 268.019531 84.988281 268.386719 C 85.0625 268.753906 85.167969 269.113281 85.3125 269.457031 C 85.457031 269.804688 85.632812 270.132812 85.839844 270.441406 C 86.046875 270.753906 86.285156 271.042969 86.550781 271.308594 C 86.8125 271.570312 87.101562 271.808594 87.414062 272.015625 C 87.722656 272.222656 88.050781 272.398438 88.398438 272.542969 C 88.746094 272.6875 89.101562 272.792969 89.46875 272.867188 C 89.835938 272.941406 90.207031 272.976562 90.578125 272.976562 L 284.417969 272.976562 C 284.792969 272.976562 285.164062 272.941406 285.53125 272.867188 C 285.898438 272.792969 286.253906 272.6875 286.601562 272.542969 C 286.949219 272.398438 287.277344 272.222656 287.585938 272.015625 C 287.898438 271.808594 288.1875 271.570312 288.449219 271.308594 C 288.714844 271.042969 288.953125 270.753906 289.160156 270.441406 C 289.367188 270.132812 289.542969 269.804688 289.6875 269.457031 C 289.832031 269.113281 289.9375 268.753906 290.011719 268.386719 C 290.085938 268.019531 290.121094 267.652344 290.121094 267.277344 L 290.121094 107.675781 C 290.121094 107.300781 290.085938 106.929688 290.011719 106.566406 C 289.9375 106.199219 289.832031 105.839844 289.6875 105.496094 C 289.542969 105.148438 289.367188 104.820312 289.160156 104.511719 C 288.953125 104.199219 288.714844 103.910156 288.449219 103.644531 C 288.1875 103.382812 287.898438 103.144531 287.585938 102.9375 C 287.277344 102.730469 286.949219 102.554688 286.601562 102.410156 C 286.253906 102.265625 285.898438 102.160156 285.53125 102.085938 C 285.164062 102.011719 284.792969 101.976562 284.417969 101.976562 Z M 301.523438 130.476562 L 301.523438 141.875 L 307.222656 141.875 L 307.222656 290.078125 L 124.785156 290.078125 L 124.785156 284.375 L 113.382812 284.375 L 113.382812 295.777344 C 113.386719 296.152344 113.421875 296.519531 113.496094 296.886719 C 113.566406 297.253906 113.675781 297.613281 113.820312 297.957031 C 113.960938 298.304688 114.136719 298.632812 114.347656 298.941406 C 114.554688 299.253906 114.789062 299.542969 115.054688 299.808594 C 115.320312 300.070312 115.609375 300.308594 115.917969 300.515625 C 116.230469 300.722656 116.558594 300.898438 116.902344 301.042969 C 117.25 301.1875 117.605469 301.292969 117.972656 301.367188 C 118.339844 301.441406 118.710938 301.476562 119.085938 301.476562 L 312.925781 301.476562 C 313.300781 301.476562 313.671875 301.441406 314.039062 301.367188 C 314.40625 301.292969 314.761719 301.1875 315.109375 301.042969 C 315.453125 300.898438 315.78125 300.722656 316.09375 300.515625 C 316.402344 300.308594 316.691406 300.070312 316.957031 299.808594 C 317.222656 299.542969 317.457031 299.253906 317.664062 298.941406 C 317.875 298.632812 318.050781 298.304688 318.191406 297.957031 C 318.335938 297.613281 318.445312 297.253906 318.515625 296.886719 C 318.589844 296.519531 318.625 296.152344 318.625 295.777344 L 318.625 136.175781 C 318.625 135.800781 318.589844 135.429688 318.515625 135.066406 C 318.445312 134.699219 318.335938 134.339844 318.191406 133.996094 C 318.050781 133.648438 317.875 133.320312 317.664062 133.011719 C 317.457031 132.699219 317.222656 132.410156 316.957031 132.144531 C 316.691406 131.882812 316.402344 131.644531 316.09375 131.4375 C 315.78125 131.230469 315.453125 131.054688 315.109375 130.910156 C 314.761719 130.765625 314.40625 130.660156 314.039062 130.585938 C 313.671875 130.511719 313.300781 130.476562 312.925781 130.476562 Z M 301.523438 130.476562 " fill-opacity="1" fill-rule="nonzero"/></g></svg>